<svg width="132" height="28" viewBox="0 0 132 28" fill="none" xmlns="http://www.w3.org/2000/svg">
<path d="M12.2464 3.17354C12.5408 2.24188 13.8592 2.24187 14.1535 3.17354L15.9428 8.83717C16.0742 9.25314 16.4601 9.53592 16.8963 9.53592H22.745C23.7069 9.53592 24.1141 10.7612 23.3436 11.337L18.5641 14.9084C18.2234 15.1629 18.081 15.6052 18.2091 16.0107L20.0232 21.753C20.3159 22.6793 19.2493 23.4368 18.4711 22.8553L13.7986 19.3639C13.4436 19.0986 12.9564 19.0986 12.6014 19.3639L7.92884 22.8553C7.15069 23.4368 6.08409 22.6793 6.37672 21.753L8.19086 16.0107C8.31898 15.6052 8.17658 15.1629 7.83589 14.9084L3.05638 11.337C2.28583 10.7612 2.69304 9.53592 3.65496 9.53592H9.5036C9.93984 9.53592 10.3257 9.25314 10.4571 8.83717L12.2464 3.17354Z" fill="#F4DAC8"/>
<path d="M65.0465 3.17354C65.3408 2.24188 66.6592 2.24187 66.9536 3.17354L68.7428 8.83717C68.8743 9.25314 69.2602 9.53592 69.6964 9.53592H75.545C76.507 9.53592 76.9142 10.7612 76.1436 11.337L71.3641 14.9084C71.0234 15.1629 70.881 15.6052 71.0091 16.0107L72.8233 21.753C73.1159 22.6793 72.0493 23.4368 71.2712 22.8553L66.5986 19.3639C66.2436 19.0986 65.7564 19.0986 65.4014 19.3639L60.7289 22.8553C59.9507 23.4368 58.8841 22.6793 59.1768 21.753L60.9909 16.0107C61.119 15.6052 60.9766 15.1629 60.6359 14.9084L55.8564 11.337C55.0859 10.7612 55.4931 9.53592 56.455 9.53592H62.3036C62.7399 9.53592 63.1258 9.25314 63.2572 8.83717L65.0465 3.17354Z" fill="#F4DAC8"/>
<path d="M38.6461 3.17354C38.9404 2.24188 40.2588 2.24187 40.5532 3.17354L42.3425 8.83717C42.4739 9.25314 42.8598 9.53592 43.296 9.53592H49.1446C50.1066 9.53592 50.5138 10.7612 49.7432 11.337L44.9637 14.9084C44.623 15.1629 44.4806 15.6052 44.6087 16.0107L46.4229 21.753C46.7155 22.6793 45.6489 23.4368 44.8708 22.8553L40.1982 19.3639C39.8432 19.0986 39.356 19.0986 39.0011 19.3639L34.3285 22.8553C33.5503 23.4368 32.4837 22.6793 32.7764 21.753L34.5905 16.0107C34.7186 15.6052 34.5762 15.1629 34.2355 14.9084L29.456 11.337C28.6855 10.7612 29.0927 9.53592 30.0546 9.53592H35.9033C36.3395 9.53592 36.7254 9.25314 36.8568 8.83717L38.6461 3.17354Z" fill="#F4DAC8"/>
<path d="M91.4461 3.17354C91.7405 2.24188 93.0589 2.24187 93.3532 3.17354L95.1425 8.83717C95.2739 9.25314 95.6598 9.53592 96.0961 9.53592H101.945C102.907 9.53592 103.314 10.7612 102.543 11.337L97.7638 14.9084C97.4231 15.1629 97.2807 15.6052 97.4088 16.0107L99.2229 21.753C99.5156 22.6793 98.449 23.4368 97.6708 22.8553L92.9983 19.3639C92.6433 19.0986 92.1561 19.0986 91.8011 19.3639L87.1286 22.8553C86.3504 23.4368 85.2838 22.6793 85.5764 21.753L87.3906 16.0107C87.5187 15.6052 87.3763 15.1629 87.0356 14.9084L82.2561 11.337C81.4855 10.7612 81.8928 9.53592 82.8547 9.53592H88.7033C89.1395 9.53592 89.5254 9.25314 89.6569 8.83717L91.4461 3.17354Z" fill="#F4DAC8"/>
<path d="M118.8 3.47479L120.589 9.13842C120.852 9.97036 121.624 10.5359 122.496 10.5359H128.345L123.566 14.1073C122.884 14.6165 122.599 15.5009 122.856 16.3119L124.67 22.0543L119.997 18.5628C119.287 18.0323 118.313 18.0323 117.603 18.5628L112.93 22.0543L114.745 16.3119C115.001 15.5009 114.716 14.6165 114.035 14.1073L109.255 10.5359L115.104 10.5359C115.976 10.5359 116.748 9.97036 117.011 9.13842L118.8 3.47479Z" stroke="#F4DAC8" stroke-width="2"/>
</svg>
