<svg width="59" height="12" viewBox="0 0 59 12" fill="none" xmlns="http://www.w3.org/2000/svg">
<path d="M5.90001 0L7.22464 4.1459H11.5112L8.04331 6.7082L9.36795 10.8541L5.90001 8.2918L2.43207 10.8541L3.7567 6.7082L0.288767 4.1459H4.57537L5.90001 0Z" fill="black"/>
<path d="M29.5001 0L30.8247 4.1459H35.1113L31.6434 6.7082L32.968 10.8541L29.5001 8.2918L26.0322 10.8541L27.3568 6.7082L23.8889 4.1459H28.1755L29.5001 0Z" fill="black"/>
<path d="M17.7001 0L19.0247 4.1459H23.3113L19.8434 6.7082L21.168 10.8541L17.7001 8.2918L14.2321 10.8541L15.5568 6.7082L12.0888 4.1459H16.3754L17.7001 0Z" fill="black"/>
<path d="M41.3002 0L42.6248 4.1459H46.9114L43.4435 6.7082L44.7681 10.8541L41.3002 8.2918L37.8322 10.8541L39.1569 6.7082L35.6889 4.1459H39.9755L41.3002 0Z" fill="black"/>
<path d="M53.1002 1.64286L53.9486 4.29807L54.0597 4.6459H54.4248H57.1933L54.9464 6.30606L54.6582 6.51902L54.7672 6.86038L55.621 9.53265L53.3973 7.88966L53.1002 7.67012L52.8031 7.88966L50.5794 9.53265L51.4332 6.86038L51.5422 6.51902L51.254 6.30606L49.0071 4.6459H51.7756H52.1407L52.2518 4.29807L53.1002 1.64286Z" stroke="black"/>
</svg>
