<svg width="990" height="160" viewBox="0 0 990 160" fill="none" xmlns="http://www.w3.org/2000/svg">
<line x1="131.6" y1="50.7176" x2="457.2" y2="50.7176" stroke="white" stroke-width="10"/>
<circle cx="79.8" cy="51.8" r="51.8" fill="#EDA971"/>
<circle cx="509" cy="51.8" r="51.8" fill="white"/>
<circle cx="938.2" cy="55.2824" r="51.8" fill="white"/>
<line x1="560.8" y1="50.7176" x2="886.4" y2="50.7176" stroke="white" stroke-width="10"/>
<path d="M19.4318 129.182C19.2614 127.742 18.5701 126.625 17.358 125.83C16.1458 125.034 14.6591 124.636 12.8977 124.636C11.6098 124.636 10.483 124.845 9.51705 125.261C8.56061 125.678 7.8125 126.251 7.27273 126.98C6.74242 127.709 6.47727 128.538 6.47727 129.466C6.47727 130.242 6.66193 130.91 7.03125 131.469C7.41004 132.018 7.89299 132.477 8.48011 132.847C9.06723 133.206 9.68277 133.505 10.3267 133.741C10.9706 133.969 11.5625 134.153 12.1023 134.295L15.0568 135.091C15.8144 135.29 16.6572 135.564 17.5852 135.915C18.5227 136.265 19.4176 136.743 20.2699 137.349C21.1316 137.946 21.8419 138.713 22.4006 139.651C22.9593 140.588 23.2386 141.739 23.2386 143.102C23.2386 144.674 22.8267 146.095 22.0028 147.364C21.1884 148.633 19.9953 149.641 18.4233 150.389C16.8608 151.137 14.9621 151.511 12.7273 151.511C10.6439 151.511 8.83996 151.175 7.31534 150.503C5.80019 149.83 4.60701 148.893 3.7358 147.69C2.87405 146.488 2.38636 145.091 2.27273 143.5H5.90909C6.00379 144.598 6.37311 145.508 7.01705 146.227C7.67045 146.937 8.49432 147.468 9.48864 147.818C10.4924 148.159 11.572 148.33 12.7273 148.33C14.072 148.33 15.2794 148.112 16.3494 147.676C17.4195 147.231 18.267 146.616 18.892 145.83C19.517 145.034 19.8295 144.106 19.8295 143.045C19.8295 142.08 19.5597 141.294 19.0199 140.688C18.4801 140.081 17.7699 139.589 16.8892 139.21C16.0085 138.831 15.0568 138.5 14.0341 138.216L10.4545 137.193C8.18182 136.54 6.38258 135.607 5.05682 134.395C3.73106 133.183 3.06818 131.597 3.06818 129.636C3.06818 128.008 3.50852 126.587 4.3892 125.375C5.27936 124.153 6.47254 123.206 7.96875 122.534C9.47443 121.852 11.1553 121.511 13.0114 121.511C14.8864 121.511 16.553 121.848 18.0114 122.52C19.4697 123.183 20.625 124.092 21.4773 125.247C22.339 126.402 22.7936 127.714 22.8409 129.182H19.4318ZM31.9283 137.875V151H28.576V121.909H31.9283V132.591H32.2124C32.7237 131.464 33.4908 130.569 34.5135 129.906C35.5457 129.234 36.9188 128.898 38.6328 128.898C40.1196 128.898 41.4216 129.196 42.5391 129.793C43.6565 130.38 44.523 131.284 45.1385 132.506C45.7635 133.718 46.076 135.261 46.076 137.136V151H42.7237V137.364C42.7237 135.631 42.2739 134.291 41.3743 133.344C40.4841 132.387 39.2483 131.909 37.6669 131.909C36.5684 131.909 35.5836 132.141 34.7124 132.605C33.8506 133.069 33.1688 133.746 32.6669 134.636C32.1745 135.527 31.9283 136.606 31.9283 137.875ZM52.2088 151V129.182H55.5611V151H52.2088ZM53.9134 125.545C53.2599 125.545 52.6965 125.323 52.223 124.878C51.759 124.433 51.527 123.898 51.527 123.273C51.527 122.648 51.759 122.113 52.223 121.668C52.6965 121.223 53.2599 121 53.9134 121C54.5668 121 55.1255 121.223 55.5895 121.668C56.063 122.113 56.2997 122.648 56.2997 123.273C56.2997 123.898 56.063 124.433 55.5895 124.878C55.1255 125.323 54.5668 125.545 53.9134 125.545ZM61.701 159.182V129.182H64.9396V132.648H65.3374C65.5836 132.269 65.9245 131.786 66.3601 131.199C66.8052 130.602 67.4396 130.072 68.2635 129.608C69.0968 129.134 70.2237 128.898 71.6442 128.898C73.4813 128.898 75.1006 129.357 76.5021 130.276C77.9036 131.194 78.9974 132.496 79.7834 134.182C80.5694 135.867 80.9624 137.856 80.9624 140.148C80.9624 142.458 80.5694 144.461 79.7834 146.156C78.9974 147.842 77.9084 149.149 76.5163 150.077C75.1243 150.995 73.5192 151.455 71.701 151.455C70.2995 151.455 69.1773 151.223 68.3345 150.759C67.4917 150.285 66.843 149.75 66.3885 149.153C65.9339 148.547 65.5836 148.045 65.3374 147.648H65.0533V159.182H61.701ZM64.9964 140.091C64.9964 141.739 65.2379 143.192 65.7209 144.452C66.2038 145.702 66.9093 146.682 67.8374 147.392C68.7654 148.093 69.9018 148.443 71.2464 148.443C72.648 148.443 73.8175 148.074 74.755 147.335C75.7019 146.587 76.4122 145.583 76.8857 144.324C77.3686 143.055 77.6101 141.644 77.6101 140.091C77.6101 138.557 77.3733 137.174 76.8999 135.943C76.4358 134.703 75.7304 133.723 74.7834 133.003C73.8459 132.274 72.6669 131.909 71.2464 131.909C69.8828 131.909 68.737 132.255 67.8089 132.946C66.8809 133.628 66.1802 134.584 65.7067 135.815C65.2332 137.037 64.9964 138.462 64.9964 140.091ZM86.076 159.182V129.182H89.3146V132.648H89.7124C89.9586 132.269 90.2995 131.786 90.7351 131.199C91.1802 130.602 91.8146 130.072 92.6385 129.608C93.4718 129.134 94.5987 128.898 96.0192 128.898C97.8563 128.898 99.4756 129.357 100.877 130.276C102.279 131.194 103.372 132.496 104.158 134.182C104.944 135.867 105.337 137.856 105.337 140.148C105.337 142.458 104.944 144.461 104.158 146.156C103.372 147.842 102.283 149.149 100.891 150.077C99.4993 150.995 97.8942 151.455 96.076 151.455C94.6745 151.455 93.5523 151.223 92.7095 150.759C91.8667 150.285 91.218 149.75 90.7635 149.153C90.3089 148.547 89.9586 148.045 89.7124 147.648H89.4283V159.182H86.076ZM89.3714 140.091C89.3714 141.739 89.6129 143.192 90.0959 144.452C90.5788 145.702 91.2843 146.682 92.2124 147.392C93.1404 148.093 94.2768 148.443 95.6214 148.443C97.023 148.443 98.1925 148.074 99.13 147.335C100.077 146.587 100.787 145.583 101.261 144.324C101.744 143.055 101.985 141.644 101.985 140.091C101.985 138.557 101.748 137.174 101.275 135.943C100.811 134.703 100.105 133.723 99.1584 133.003C98.2209 132.274 97.0419 131.909 95.6214 131.909C94.2578 131.909 93.112 132.255 92.1839 132.946C91.2559 133.628 90.5552 134.584 90.0817 135.815C89.6082 137.037 89.3714 138.462 89.3714 140.091ZM110.451 151V129.182H113.803V151H110.451ZM112.156 125.545C111.502 125.545 110.939 125.323 110.465 124.878C110.001 124.433 109.769 123.898 109.769 123.273C109.769 122.648 110.001 122.113 110.465 121.668C110.939 121.223 111.502 121 112.156 121C112.809 121 113.368 121.223 113.832 121.668C114.305 122.113 114.542 122.648 114.542 123.273C114.542 123.898 114.305 124.433 113.832 124.878C113.368 125.323 112.809 125.545 112.156 125.545ZM123.295 137.875V151H119.943V129.182H123.182V132.591H123.466C123.977 131.483 124.754 130.593 125.795 129.92C126.837 129.239 128.182 128.898 129.83 128.898C131.307 128.898 132.599 129.201 133.707 129.807C134.815 130.403 135.677 131.312 136.293 132.534C136.908 133.746 137.216 135.28 137.216 137.136V151H133.864V137.364C133.864 135.65 133.419 134.314 132.528 133.358C131.638 132.392 130.417 131.909 128.864 131.909C127.794 131.909 126.837 132.141 125.994 132.605C125.161 133.069 124.503 133.746 124.02 134.636C123.537 135.527 123.295 136.606 123.295 137.875ZM152.148 159.636C150.529 159.636 149.137 159.428 147.972 159.011C146.808 158.604 145.837 158.064 145.06 157.392C144.293 156.729 143.683 156.019 143.228 155.261L145.898 153.386C146.201 153.784 146.585 154.239 147.049 154.75C147.513 155.271 148.147 155.721 148.952 156.099C149.767 156.488 150.832 156.682 152.148 156.682C153.91 156.682 155.363 156.256 156.509 155.403C157.655 154.551 158.228 153.216 158.228 151.398V146.966H157.944C157.698 147.364 157.347 147.856 156.893 148.443C156.448 149.021 155.804 149.537 154.961 149.991C154.128 150.437 153.001 150.659 151.58 150.659C149.819 150.659 148.237 150.242 146.836 149.409C145.444 148.576 144.341 147.364 143.526 145.773C142.721 144.182 142.319 142.25 142.319 139.977C142.319 137.742 142.712 135.796 143.498 134.139C144.284 132.473 145.378 131.185 146.779 130.276C148.181 129.357 149.8 128.898 151.637 128.898C153.058 128.898 154.184 129.134 155.018 129.608C155.861 130.072 156.504 130.602 156.95 131.199C157.404 131.786 157.754 132.269 158.001 132.648H158.342V129.182H161.58V151.625C161.58 153.5 161.154 155.025 160.302 156.199C159.459 157.383 158.323 158.249 156.893 158.798C155.472 159.357 153.891 159.636 152.148 159.636ZM152.035 147.648C153.379 147.648 154.516 147.34 155.444 146.724C156.372 146.109 157.077 145.223 157.56 144.068C158.043 142.913 158.285 141.53 158.285 139.92C158.285 138.348 158.048 136.961 157.575 135.759C157.101 134.556 156.4 133.614 155.472 132.932C154.544 132.25 153.398 131.909 152.035 131.909C150.614 131.909 149.431 132.269 148.484 132.989C147.546 133.708 146.841 134.674 146.367 135.886C145.903 137.098 145.671 138.443 145.671 139.92C145.671 141.436 145.908 142.776 146.381 143.94C146.864 145.096 147.575 146.005 148.512 146.668C149.459 147.321 150.633 147.648 152.035 147.648Z" fill="black"/>
<path d="M448.642 151V129.182H456.014C457.726 129.182 459.125 129.491 460.212 130.109C461.305 130.719 462.115 131.547 462.641 132.591C463.166 133.635 463.429 134.8 463.429 136.085C463.429 137.371 463.166 138.539 462.641 139.59C462.122 140.641 461.32 141.479 460.233 142.104C459.146 142.722 457.754 143.031 456.057 143.031H450.773V140.688H455.972C457.143 140.688 458.085 140.485 458.795 140.08C459.505 139.675 460.02 139.129 460.339 138.44C460.666 137.744 460.83 136.959 460.83 136.085C460.83 135.212 460.666 134.43 460.339 133.741C460.02 133.053 459.501 132.513 458.784 132.122C458.067 131.724 457.115 131.526 455.929 131.526H451.284V151H448.642ZM472.159 151.384C471.123 151.384 470.181 151.188 469.336 150.798C468.491 150.4 467.82 149.828 467.323 149.082C466.826 148.33 466.577 147.42 466.577 146.355C466.577 145.418 466.762 144.658 467.131 144.075C467.5 143.486 467.994 143.024 468.612 142.69C469.23 142.357 469.912 142.108 470.657 141.945C471.41 141.774 472.167 141.639 472.926 141.54C473.921 141.412 474.727 141.316 475.345 141.252C475.97 141.181 476.424 141.064 476.708 140.901C477 140.737 477.145 140.453 477.145 140.048V139.963C477.145 138.912 476.858 138.095 476.282 137.513C475.714 136.93 474.851 136.639 473.694 136.639C472.493 136.639 471.552 136.902 470.87 137.428C470.189 137.953 469.709 138.514 469.432 139.111L467.046 138.259C467.472 137.264 468.04 136.49 468.75 135.936C469.468 135.375 470.249 134.984 471.094 134.764C471.946 134.537 472.784 134.423 473.608 134.423C474.134 134.423 474.738 134.487 475.419 134.615C476.108 134.736 476.772 134.988 477.412 135.371C478.058 135.755 478.594 136.334 479.02 137.108C479.446 137.882 479.659 138.919 479.659 140.219V151H477.145V148.784H477.017C476.847 149.139 476.563 149.519 476.165 149.924C475.767 150.329 475.238 150.673 474.578 150.957C473.917 151.241 473.111 151.384 472.159 151.384ZM472.543 149.125C473.537 149.125 474.375 148.93 475.057 148.539C475.746 148.148 476.265 147.644 476.613 147.026C476.968 146.408 477.145 145.759 477.145 145.077V142.776C477.039 142.903 476.804 143.021 476.442 143.127C476.087 143.227 475.675 143.315 475.206 143.393C474.745 143.464 474.294 143.528 473.853 143.585C473.42 143.635 473.069 143.678 472.799 143.713C472.145 143.798 471.534 143.937 470.966 144.129C470.405 144.313 469.951 144.594 469.603 144.97C469.262 145.339 469.091 145.844 469.091 146.483C469.091 147.357 469.414 148.017 470.061 148.464C470.714 148.905 471.542 149.125 472.543 149.125ZM485.282 157.136C484.856 157.136 484.476 157.101 484.142 157.03C483.808 156.966 483.577 156.902 483.449 156.838L484.089 154.622C484.699 154.778 485.239 154.835 485.708 154.793C486.177 154.75 486.592 154.54 486.954 154.164C487.324 153.795 487.661 153.195 487.966 152.364L488.435 151.085L482.384 134.636H485.111L489.628 147.676H489.799L494.316 134.636H497.043L490.097 153.386C489.785 154.232 489.398 154.931 488.936 155.485C488.474 156.046 487.938 156.462 487.327 156.732C486.724 157.001 486.042 157.136 485.282 157.136ZM500.362 151V134.636H502.791V137.193H503.004C503.345 136.32 503.895 135.641 504.655 135.158C505.415 134.668 506.328 134.423 507.393 134.423C508.472 134.423 509.371 134.668 510.088 135.158C510.813 135.641 511.377 136.32 511.782 137.193H511.953C512.372 136.348 513 135.677 513.838 135.18C514.676 134.675 515.681 134.423 516.853 134.423C518.316 134.423 519.513 134.881 520.443 135.798C521.374 136.707 521.839 138.124 521.839 140.048V151H519.325V140.048C519.325 138.841 518.994 137.978 518.334 137.46C517.673 136.941 516.896 136.682 516.001 136.682C514.85 136.682 513.959 137.03 513.327 137.726C512.695 138.415 512.379 139.288 512.379 140.347V151H509.822V139.793C509.822 138.862 509.52 138.113 508.916 137.545C508.313 136.969 507.535 136.682 506.583 136.682C505.93 136.682 505.319 136.856 504.751 137.204C504.19 137.552 503.735 138.035 503.387 138.653C503.046 139.263 502.876 139.97 502.876 140.773V151H500.362ZM533.297 151.341C531.72 151.341 530.36 150.993 529.216 150.297C528.08 149.594 527.203 148.614 526.585 147.357C525.974 146.092 525.669 144.622 525.669 142.946C525.669 141.27 525.974 139.793 526.585 138.514C527.203 137.229 528.062 136.227 529.163 135.51C530.271 134.786 531.564 134.423 533.041 134.423C533.893 134.423 534.735 134.565 535.566 134.849C536.397 135.134 537.153 135.595 537.835 136.234C538.517 136.866 539.06 137.705 539.465 138.749C539.87 139.793 540.072 141.078 540.072 142.605V143.67H527.459V141.497H537.515C537.515 140.574 537.331 139.75 536.961 139.026C536.599 138.301 536.081 137.729 535.406 137.31C534.738 136.891 533.95 136.682 533.041 136.682C532.04 136.682 531.173 136.93 530.442 137.428C529.717 137.918 529.16 138.557 528.769 139.345C528.378 140.134 528.183 140.979 528.183 141.881V143.33C528.183 144.565 528.396 145.613 528.822 146.472C529.256 147.325 529.856 147.974 530.623 148.422C531.39 148.862 532.281 149.082 533.297 149.082C533.957 149.082 534.554 148.99 535.086 148.805C535.626 148.614 536.091 148.33 536.482 147.953C536.873 147.57 537.175 147.094 537.388 146.526L539.817 147.207C539.561 148.031 539.131 148.756 538.528 149.381C537.924 149.999 537.178 150.482 536.29 150.83C535.403 151.17 534.405 151.341 533.297 151.341ZM546.411 141.156V151H543.897V134.636H546.326V137.193H546.539C546.922 136.362 547.505 135.695 548.286 135.19C549.067 134.679 550.076 134.423 551.312 134.423C552.42 134.423 553.389 134.651 554.22 135.105C555.051 135.553 555.697 136.234 556.159 137.151C556.621 138.06 556.851 139.21 556.851 140.602V151H554.337V140.773C554.337 139.487 554.003 138.486 553.336 137.768C552.668 137.044 551.752 136.682 550.587 136.682C549.785 136.682 549.067 136.856 548.435 137.204C547.81 137.552 547.317 138.06 546.954 138.727C546.592 139.395 546.411 140.205 546.411 141.156ZM568.562 134.636V136.767H560.082V134.636H568.562ZM562.554 130.716H565.068V146.312C565.068 147.023 565.171 147.555 565.377 147.911C565.59 148.259 565.86 148.493 566.186 148.614C566.52 148.727 566.872 148.784 567.241 148.784C567.518 148.784 567.745 148.77 567.923 148.741C568.1 148.706 568.243 148.678 568.349 148.656L568.86 150.915C568.69 150.979 568.452 151.043 568.147 151.107C567.841 151.178 567.454 151.213 566.985 151.213C566.275 151.213 565.579 151.06 564.897 150.755C564.223 150.45 563.662 149.984 563.214 149.359C562.774 148.734 562.554 147.946 562.554 146.994V130.716Z" fill="black"/>
<path d="M889.642 151V129.182H897.014C898.719 129.182 900.118 129.473 901.212 130.055C902.305 130.631 903.115 131.423 903.641 132.431C904.166 133.44 904.429 134.587 904.429 135.872C904.429 137.158 904.166 138.298 903.641 139.292C903.115 140.286 902.309 141.067 901.222 141.636C900.136 142.197 898.747 142.477 897.057 142.477H891.091V140.091H896.972C898.136 140.091 899.074 139.92 899.784 139.58C900.501 139.239 901.02 138.756 901.339 138.131C901.666 137.499 901.83 136.746 901.83 135.872C901.83 134.999 901.666 134.235 901.339 133.582C901.013 132.928 900.491 132.424 899.773 132.069C899.056 131.707 898.108 131.526 896.929 131.526H892.284V151H889.642ZM899.912 141.199L905.281 151H902.213L896.929 141.199H899.912ZM915.176 151.341C913.599 151.341 912.239 150.993 911.095 150.297C909.959 149.594 909.082 148.614 908.464 147.357C907.853 146.092 907.548 144.622 907.548 142.946C907.548 141.27 907.853 139.793 908.464 138.514C909.082 137.229 909.941 136.227 911.042 135.51C912.15 134.786 913.443 134.423 914.92 134.423C915.772 134.423 916.614 134.565 917.445 134.849C918.276 135.134 919.032 135.595 919.714 136.234C920.396 136.866 920.939 137.705 921.344 138.749C921.749 139.793 921.951 141.078 921.951 142.605V143.67H909.338V141.497H919.394C919.394 140.574 919.21 139.75 918.84 139.026C918.478 138.301 917.96 137.729 917.285 137.31C916.617 136.891 915.829 136.682 914.92 136.682C913.919 136.682 913.052 136.93 912.32 137.428C911.596 137.918 911.039 138.557 910.648 139.345C910.257 140.134 910.062 140.979 910.062 141.881V143.33C910.062 144.565 910.275 145.613 910.701 146.472C911.134 147.325 911.735 147.974 912.502 148.422C913.269 148.862 914.16 149.082 915.176 149.082C915.836 149.082 916.433 148.99 916.965 148.805C917.505 148.614 917.97 148.33 918.361 147.953C918.752 147.57 919.053 147.094 919.267 146.526L921.695 147.207C921.44 148.031 921.01 148.756 920.406 149.381C919.803 149.999 919.057 150.482 918.169 150.83C917.281 151.17 916.284 151.341 915.176 151.341ZM938.658 134.636L932.607 151H930.05L923.999 134.636H926.727L931.244 147.676H931.414L935.931 134.636H938.658ZM941.977 151V134.636H944.491V151H941.977ZM943.255 131.909C942.765 131.909 942.343 131.742 941.988 131.408C941.64 131.075 941.466 130.673 941.466 130.205C941.466 129.736 941.64 129.335 941.988 129.001C942.343 128.667 942.765 128.5 943.255 128.5C943.745 128.5 944.164 128.667 944.512 129.001C944.868 129.335 945.045 129.736 945.045 130.205C945.045 130.673 944.868 131.075 944.512 131.408C944.164 131.742 943.745 131.909 943.255 131.909ZM955.957 151.341C954.38 151.341 953.02 150.993 951.877 150.297C950.74 149.594 949.863 148.614 949.245 147.357C948.634 146.092 948.329 144.622 948.329 142.946C948.329 141.27 948.634 139.793 949.245 138.514C949.863 137.229 950.722 136.227 951.823 135.51C952.931 134.786 954.224 134.423 955.701 134.423C956.553 134.423 957.395 134.565 958.226 134.849C959.057 135.134 959.813 135.595 960.495 136.234C961.177 136.866 961.72 137.705 962.125 138.749C962.53 139.793 962.732 141.078 962.732 142.605V143.67H950.119V141.497H960.176C960.176 140.574 959.991 139.75 959.622 139.026C959.259 138.301 958.741 137.729 958.066 137.31C957.399 136.891 956.61 136.682 955.701 136.682C954.7 136.682 953.833 136.93 953.102 137.428C952.377 137.918 951.82 138.557 951.429 139.345C951.039 140.134 950.843 140.979 950.843 141.881V143.33C950.843 144.565 951.056 145.613 951.482 146.472C951.916 147.325 952.516 147.974 953.283 148.422C954.05 148.862 954.941 149.082 955.957 149.082C956.617 149.082 957.214 148.99 957.747 148.805C958.286 148.614 958.752 148.33 959.142 147.953C959.533 147.57 959.835 147.094 960.048 146.526L962.477 147.207C962.221 148.031 961.791 148.756 961.188 149.381C960.584 149.999 959.838 150.482 958.95 150.83C958.063 151.17 957.065 151.341 955.957 151.341ZM970.264 151L965.279 134.636H967.921L971.458 147.165H971.628L975.122 134.636H977.807L981.259 147.122H981.429L984.966 134.636H987.608L982.622 151H980.151L976.571 138.429H976.316L972.736 151H970.264Z" fill="black"/>
</svg>
